<svg width="80" height="59" viewBox="0 0 80 59" fill="none" xmlns="http://www.w3.org/2000/svg">
<path d="M79.8694 35.1631V44.3759H41.0163C37.3445 44.5277 35.4184 45.3246 32.3159 47.3361C27.9325 50.116 20.5129 58.2282 13.7006 58.2282H0V48.9965C0 48.9965 21.0727 49.1672 23.1885 48.9965C27.496 48.6264 30.2475 46.3209 33.815 43.7402C37.7904 40.8938 42.1454 35.201 47.0032 35.201L79.8694 35.1631Z" fill="black"/>
<path d="M37.9138 31.2822C43.227 31.2822 51.8895 18.9479 60.7702 17.7714C62.6203 17.3729 72.6681 17.4014 79.8694 17.4014V27.0031H60.7702C56.6714 27.0031 52.4018 26.5192 48.5972 27.9519C40.6558 30.9311 36.9745 40.8365 26.9362 40.8365H0V31.2822H37.9138Z" fill="black"/>
<path d="M42.1659 23.0177H0.0205078V14.0137H47.7828C48.9091 14.0296 50.0334 13.9118 51.132 13.6626C55.876 12.3438 61.7585 7.70422 65.7529 4.82938C70.364 1.50861 71.7777 0 75.6203 0H79.8899V9.26972H69.8042C65.1457 9.26972 63.5232 9.36459 61.2651 10.5601C58.4187 12.1161 55.8285 14.5924 53.4281 16.3667C50.0409 18.8241 46.1224 23.0177 42.1659 23.0177Z" fill="black"/>
</svg>
